# Blender v2.90.1 OBJ File: ''
# www.blender.org
mtllib conveyor.mtl
o Cube
v 3.000000 1.000000 -3.000000
v 3.000000 -1.000000 -3.000000
v 3.000000 1.000000 3.000000
v 3.000000 -1.000000 3.000000
v -3.000000 1.000000 -3.000000
v -3.000000 -1.000000 -3.000000
v -3.000000 1.000000 3.000000
v -3.000000 -1.000000 3.000000
v 1.000000 -1.000000 -3.000000
v -1.000000 -1.000000 -3.000000
v 1.000000 1.000000 3.000000
v -1.000000 1.000000 3.000000
v -1.000000 -1.000000 3.000000
v 1.000000 -1.000000 3.000000
v -1.000000 1.000000 -3.000000
v 1.000000 1.000000 -3.000000
v 3.000000 3.000000 -3.000000
v 3.000000 3.000000 3.000000
v 1.000000 3.000000 -3.000000
v 1.000000 3.000000 3.000000
vt 0.791667 0.500000
vt 0.875000 0.500000
vt 0.875000 0.750000
vt 0.791667 0.750000
vt 0.375000 0.916667
vt 0.625000 0.916667
vt 0.625000 1.000000
vt 0.375000 1.000000
vt 0.375000 0.000000
vt 0.625000 0.000000
vt 0.625000 0.250000
vt 0.375000 0.250000
vt 0.291667 0.500000
vt 0.375000 0.500000
vt 0.375000 0.750000
vt 0.291667 0.750000
vt 0.625000 0.500000
vt 0.625000 0.750000
vt 0.375000 0.416667
vt 0.625000 0.416667
vt 0.625000 0.333333
vt 0.375000 0.333333
vt 0.125000 0.500000
vt 0.208333 0.500000
vt 0.208333 0.750000
vt 0.125000 0.750000
vt 0.625000 0.833333
vt 0.375000 0.833333
vt 0.625000 0.500000
vt 0.625000 0.750000
vt 0.708333 0.500000
vt 0.708333 0.750000
vt 0.708333 0.500000
vt 0.708333 0.750000
vt 0.625000 0.833333
vt 0.625000 0.416667
vn 0.0000 1.0000 0.0000
vn 0.0000 0.0000 1.0000
vn -1.0000 0.0000 0.0000
vn 0.0000 -1.0000 0.0000
vn 1.0000 0.0000 0.0000
vn 0.0000 0.0000 -1.0000
usemtl Material
s off
f 15/1/1 5/2/1 7/3/1 12/4/1
f 13/5/2 12/6/2 7/7/2 8/8/2
f 8/9/3 7/10/3 5/11/3 6/12/3
f 9/13/4 2/14/4 4/15/4 14/16/4
f 2/14/5 1/17/5 3/18/5 4/15/5
f 9/19/6 16/20/6 1/17/6 2/14/6
f 6/12/6 5/11/6 15/21/6 10/22/6
f 10/22/6 15/21/6 16/20/6 9/19/6
f 6/23/4 10/24/4 13/25/4 8/26/4
f 10/24/4 9/13/4 14/16/4 13/25/4
f 4/15/2 3/18/2 11/27/2 14/28/2
f 14/28/2 11/27/2 12/6/2 13/5/2
f 3/18/5 1/17/5 17/29/5 18/30/5
f 16/31/1 15/1/1 12/4/1 11/32/1
f 17/29/1 19/33/1 20/34/1 18/30/1
f 11/27/2 3/18/2 18/30/2 20/35/2
f 1/17/6 16/20/6 19/36/6 17/29/6
f 16/31/3 11/32/3 20/34/3 19/33/3
